<?xml version="1.0" encoding="UTF-8"?>
<!DOCTYPE svg PUBLIC "-//W3C//DTD SVG 1.1//EN" "http://www.w3.org/Graphics/SVG/1.1/DTD/svg11.dtd">
<!-- Creator: CorelDRAW 2017 -->
<svg xmlns="http://www.w3.org/2000/svg" xml:space="preserve" width="155.266mm" height="29.7569mm" version="1.1" style="shape-rendering:geometricPrecision; text-rendering:geometricPrecision; image-rendering:optimizeQuality; fill-rule:evenodd; clip-rule:evenodd"
viewBox="0 0 15751 3019"
 xmlns:xlink="http://www.w3.org/1999/xlink">
 <defs>
  <style type="text/css">
   <![CDATA[
    .fil0 {fill:white}
   ]]>
  </style>
 </defs>
 <g id="Layer_x0020_1">
  <metadata id="CorelCorpID_0Corel-Layer"/>
  <path class="fil0" d="M0 743l1667 -368 0 375c556,-123 1112,-246 1667,-368l0 -179 -160 -160 -1507 333 0 -375 -1667 368 0 375zm15441 1606l83 0c20,0 36,2 48,6 12,4 22,9 29,15 7,6 12,13 14,22 3,8 4,17 4,25 0,16 -3,29 -8,38 -5,10 -15,17 -29,23l47 93 -56 0 -41 -82 -41 0 0 82 -51 0 0 -222zm89 97c19,0 30,-3 33,-9 4,-6 5,-13 5,-20 0,-6 -3,-12 -8,-18 -5,-5 -18,-8 -38,-8l-32 0 0 55 39 0zm-3 251c-33,0 -63,-5 -91,-16 -28,-11 -51,-26 -71,-46 -20,-20 -35,-44 -46,-73 -11,-29 -16,-61 -16,-97 0,-36 6,-68 17,-97 11,-29 27,-53 48,-73 20,-20 44,-36 71,-46 27,-11 56,-16 88,-16 34,0 64,5 92,16 28,11 51,26 71,46 19,20 34,45 45,73 11,29 16,61 16,97 0,36 -6,68 -17,97 -11,29 -27,53 -48,73 -20,20 -44,36 -72,46 -27,11 -56,16 -87,16zm-1 -51c50,0 90,-16 121,-47 31,-32 47,-76 47,-135 0,-58 -16,-103 -47,-135 -31,-32 -72,-47 -121,-47 -50,0 -90,16 -120,47 -31,32 -46,76 -46,135 0,58 15,103 46,135 30,32 71,47 120,47zm-4892 -1714l531 0c85,0 159,32 222,94l151 147c62,61 90,137 90,222l0 413 -94 90 -1039 0 0 277c0,28 13,50 34,72l90 90c20,20 45,30 75,30l410 0c30,0 55,-10 75,-30l121 -121 218 218 -132 132c-63,63 -137,94 -222,94l-531 0c-88,0 -162,-31 -222,-94l-151 -147c-62,-61 -90,-137 -90,-222l0 -803c0,-85 28,-161 90,-222l151 -147c62,-61 134,-94 222,-94zm3041 -670l233 0 0 853 298 -139c63,-30 127,-45 192,-45l200 0c85,0 160,31 222,94l147 151c61,62 94,134 94,222l0 1263 -328 0 0 -1245c0,-25 -10,-47 -30,-68l-90 -94c-20,-20 -45,-30 -75,-30l-128 0c-23,0 -42,6 -60,15l-441 207 0 1214 -324 0 0 -2304 90 -94zm-1317 669l580 0c85,0 157,33 218,94l132 132 -218 218 -121 -121c-19,-19 -41,-30 -72,-30l-459 0c-30,0 -55,10 -75,30l-94 90c-20,20 -30,44 -30,72l0 758c0,28 10,52 30,72l94 90c20,20 45,30 75,30l459 0c30,0 54,-10 72,-30l124 -121 218 218 -136 132c-60,63 -133,94 -218,94l-580 0c-88,0 -162,-31 -222,-94l-151 -147c-62,-61 -90,-137 -90,-222l0 -803c0,-85 28,-161 90,-222l151 -147c62,-61 134,-94 222,-94zm-8003 -434l324 0 0 433 410 0 0 294 -410 0 0 952c0,28 10,51 30,72l94 94c20,18 45,26 75,26l211 0 0 203 -94 90 -177 0c-85,0 -159,-30 -222,-90l-151 -151c-60,-60 -90,-134 -90,-222l0 -856 0 -118 -290 0 0 -203 90 -90 200 0 0 -433zm4809 0l324 0 0 433 410 0 0 294 -410 0 0 952c0,28 10,51 30,72l94 94c20,18 45,26 75,26l211 0 0 203 -94 90 -177 0c-85,0 -159,-30 -222,-90l-151 -151c-60,-60 -90,-134 -90,-222l0 -974 -290 0 0 -203 90 -90 200 0 0 -433zm-911 -234l237 0 90 90 0 2308 -261 0 -59 -132 -177 83c-68,33 -139,49 -215,49l-294 0c-85,0 -159,-30 -222,-90l-151 -151c-62,-62 -90,-137 -90,-222l0 -783c0,-88 28,-166 90,-226l173 -166c63,-60 133,-94 218,-94l659 0 0 -667zm0 1939l0 -979 -599 0c-30,0 -55,10 -75,30l-109 109c-23,23 -34,46 -34,72l0 741c0,28 13,50 34,72l90 90c20,20 45,30 75,30l234 0c23,0 44,-4 64,-11l320 -154zm-2730 -1272l791 0c85,0 159,31 222,94l166 166c62,62 94,134 94,222l0 1250 -261 0 -59 -132 -177 83c-68,33 -139,49 -215,49l-294 0c-88,0 -162,-31 -222,-94l-151 -147c-62,-61 -90,-137 -90,-222l0 -165c0,-88 29,-163 90,-222l173 -169c61,-60 133,-90 218,-90l659 0 0 -121c0,-25 -10,-48 -30,-68l-109 -109c-20,-20 -45,-30 -75,-30l-825 0 0 -203 94 -90zm945 1272l0 -361 -599 0c-30,0 -56,10 -75,30l-109 113c-21,22 -34,44 -34,72l0 120c0,28 13,50 34,72l90 90c20,20 45,30 75,30l233 0c23,0 43,-5 60,-15l324 -151zm4803 -855l-90 -90c-20,-20 -45,-30 -75,-30l-410 0c-30,0 -55,10 -75,30l-90 90c-21,21 -34,44 -34,72l0 191 810 0 0 -191c0,-28 -13,-50 -34,-72zm-10151 1673l366 0 0 -2230 -1485 328 0 179 160 160 959 -212 0 1775zm731 -1937l0 1937 366 0 0 -1643 1119 -247 0 -375 -1485 328z"/>
 </g>
</svg>
